<svg xmlns="http://www.w3.org/2000/svg" xmlns:xlink="http://www.w3.org/1999/xlink"><defs><style>
    .sprite-symbol-usage {display: none;}
    .sprite-symbol-usage:target {display: inline;}
  </style><symbol viewBox="0 0 50 50" id="circle">
<style type="text/css">
  #circle .st0{fill:#ff0000;}
</style>
  <path class="st0" d="M25.5,44C14.7,44,6,35.3,6,24.5C6,13.7,14.7,5,25.5,5C36.3,5,45,13.7,45,24.5C45,35.3,36.3,44,25.5,44z" />
  <path d="M25.5,5.5c10.5,0,19,8.5,19,19s-8.5,19-19,19s-19-8.5-19-19S15,5.5,25.5,5.5 M25.5,4.5c-11,0-20,9-20,20s9,20,20,20
    s20-9,20-20S36.5,4.5,25.5,4.5L25.5,4.5z" />
</symbol><symbol viewBox="0 0 50 50" id="square">
<style type="text/css">
  #square .st0{fill:#000000;}
</style>
<g>
  <rect x="7.5" y="8.5" class="st0" width="35" height="35" />
  <path d="M42,9v34H8V9H42 M43,8H7v36h36V8L43,8z" />
</g>
</symbol></defs><use id="circle-usage" xlink:href="#circle" class="sprite-symbol-usage" /><use id="square-usage" xlink:href="#square" class="sprite-symbol-usage" /></svg>